<svg xmlns="http://www.w3.org/2000/svg" style="display: none;">
	<symbol id="icon-login" viewBox="0 0 200 200">
		<path fill-rule="evenodd" clip-rule="evenodd" d="M52.09,136.887c0.282-0.102,0.591-0.159,0.843-0.313 c5.787-3.503,11.53-7.082,17.369-10.495c2.072-1.209,4.425-1.177,6.768-0.555c2.462,0.653,4.933,1.324,7.441,1.75 c3.187,0.541,4.621-0.404,5.765-3.375c0.333-0.865,0.696-1.719,1.081-2.563c1.006-2.195,0.862-2.066-1.109-3.57 c-6.35-4.844-13.819-5.992-21.417-6.763c-5.076-0.515-10.162-0.922-15.243-1.382c-0.499-0.045-0.994-0.123-1.624-0.554 c0.501-0.24,0.978-0.599,1.505-0.702c8.3-1.645,16.587-3.371,24.928-4.773c1.593-0.267,3.502,0.554,5.096,1.257 c4.5,1.986,8.915,4.171,13.36,6.284c1.875,0.891,2.71-0.79,3.86-1.597c1.053-0.739,0.408-1.644-0.009-2.468 c-0.131-0.26-0.311-0.499-0.406-0.77C97.441,98.205,91.241,93.36,84,89.532c-3.125-1.65-6.261-3.279-9.389-4.924 c-0.542-0.285-1.067-0.598-1.601-0.898c0.031-0.16,0.062-0.32,0.093-0.48c0.814,0,1.634-0.056,2.444,0.009 c6.937,0.543,13.869,1.152,20.811,1.636c1.784,0.125,3.169,0.779,4.101,2.222c3.012,4.664,6.053,9.313,8.892,14.082 c1.418,2.382,1.298,2.498,3.999,1.736c2.174-0.614,4.357-1.209,6.563-1.698c1.461-0.324,1.702-0.945,1.188-2.335 c-3.514-9.486-7.862-18.458-15.305-25.59c-0.467-0.448-0.842-0.988-1.26-1.486c0.101-0.141,0.202-0.283,0.303-0.424 c2.863,1.171,5.772,2.242,8.578,3.537c3.419,1.579,6.731,3.387,10.128,5.016c1.64,0.786,2.305,2.207,2.853,3.756 c1.664,4.699,3.395,9.376,4.928,14.118c0.613,1.893,1.696,2.847,3.581,3.294c3.154,0.749,6.32,1.516,9.385,2.56 c6.542,2.227,11.827,6.265,16.115,11.666c3.115,3.924,3.151,3.905,7.055,0.907c1.471-1.131,2.913-2.298,4.365-3.45 c0.987-0.784,1.034-1.617,0.388-2.723c-2.56-4.375-1.855-6.676,2.672-9.111c2.401-1.292,2.404-1.293,1.637-3.883 c-4.695-15.839-9.391-31.677-14.089-47.515c-1.01-3.405-5.164-6.069-9.349-5.91c-13.854,0.53-26.844,3.688-37.938,12.569 c-1.085,0.869-2.298,1.58-3.37,2.463c-6.934,5.706-14.784,9.1-23.74,10.318c-12.667,1.724-25.33,2.312-37.939,0.135 c-10.13-1.748-19.921-4.812-29.22-9.34c-5.698-2.775-10.479-6.81-15.401-10.67c-0.292-0.229-0.495-0.572-1.063-1.248 c0.795,0.168,1.157,0.178,1.456,0.318c14.246,6.724,29.329,8.599,44.806,7.079c15.634-1.537,30.336-6.057,43.031-15.775 c4.365-3.341,8.746-6.69,12.85-10.339c6.666-5.928,14.55-8.534,23.208-9.627c7.262-0.917,14.438-1.108,21.598,0.64 c1.606,0.393,2.036-0.087,1.726-1.662c-0.146-0.739-0.305-1.476-0.491-2.205c-0.282-1.097-0.893-1.715-2.109-1.979 c-3.942-0.854-6.426-3.827-6.244-7.247c0.178-3.346,3.248-6.562,6.685-7.001c3.823-0.489,7.588,1.724,8.717,5.165 c0.812,2.473,0.012,4.583-1.684,6.381c-0.887,0.939-1.173,1.83-0.792,3.123c3.876,13.179,7.688,26.378,11.539,39.565 c4.159,14.242,8.354,28.473,12.5,42.719c0.444,1.524,1.182,2.259,2.867,1.994c1.818-0.286,3.53,0.267,4.791,1.57 c1.848,1.911,3.715,3.856,5.229,6.027c2.439,3.498,1.854,6.634-1.443,9.314c-1.032,0.84-2.133,1.603-3.24,2.342 c-1.337,0.893-1.752,1.989-1.243,3.574c1.647,5.132,3.235,10.284,4.781,15.447c0.217,0.727,0.356,1.743,0.009,2.298 c-0.378,0.604-1.453,1.247-2.063,1.116c-0.781-0.168-1.783-0.964-2.029-1.708c-1.403-4.234-2.61-8.534-3.882-12.812 c-0.298-1-0.563-2.012-0.889-3.002c-0.819-2.483-2.286-3.043-4.511-1.605c-2.823,1.825-5.487,3.914-8.396,5.584 c-2.832,1.626-3.931,3.511-3.834,7.027c0.247,9.035-4.997,14.994-12.646,18.789c-10.908,5.411-22.147,5.168-33.417,0.953 c-1.356-0.507-2.689-1.088-4.068-1.521c-1.969-0.619-3.007,0.325-2.515,2.286c0.423,1.686,0.986,3.334,1.46,5.007 c0.408,1.439,1.218,1.935,2.733,1.523c3.019-0.82,6.071-1.518,9.112-2.256c2.592-0.63,4.918-0.139,7.017,1.557 c2.932,2.368,5.923,4.662,8.86,7.023c1.459,1.175,2.977,1.42,4.692,0.64c2.319-1.054,4.646-2.1,6.995-3.083 c2.027-0.851,1.731-0.333,3.063,1.149c1.306,1.455,2.041,3.256,3.428,4.584c0.165,0.157,0.335,0.308,0.692,0.634 c-0.486,0.504-0.864,1.084-1.396,1.42c-5.79,3.635-11.559,7.307-17.431,10.804c-2.843,1.692-4.62,1.342-6.688-1.287 c-3.116-3.96-6.06-8.059-9.009-12.147c-2.166-3.004-2.162-3.048-5.607-1.473c-1.476,0.674-2.93,1.411-4.451,1.963 c-1.994,0.724-2.871,2.128-3.156,4.155c-0.563,4.019-1.332,8.01-1.828,12.035c-0.271,2.198-1.388,3.398-3.436,3.75 c-1.589,0.274-3.212,0.376-4.825,0.473c-3.122,0.191-6.279,0.126-9.359,0.579c-1.327,0.193-3.069,1.121-3.647,2.225 c-2.129,4.072-5.656,5.446-9.811,5.892c-4.427,0.476-5-0.087-4.481-4.531c0.53-4.549,1.069-9.102,1.813-13.617 c0.794-4.819,4.418-7.143,9.285-6.135c4.314,0.894,8.616,1.846,12.919,2.788c3.771,0.825,3.685,0.834,3.672-2.949 c-0.006-1.792-0.604-3.067-1.996-4.164c-5.108-4.028-9.66-8.571-12.14-14.731c-1.228-3.049-2.177-6.223-3.053-9.397 c-0.364-1.321-0.803-1.572-2.034-1.121c-2.479,0.91-3.149,1.748-3.105,4.334c0.05,2.957,0.163,5.912,0.175,8.87 c0.007,1.682,0.768,2.672,2.32,3.263c3.01,1.145,3.256,1.584,3.184,4.913c-0.084,3.894-0.258,3.549-3.74,5.303 c-3.745,1.885-7.19,1.899-11.154,0.872c-5.286-1.369-4.662-0.653-4.907-5.66c-0.388-7.938,1.059-15.704,2.08-23.505 c0.099-0.748,1.216-1.665,2.052-1.962c4.096-1.446,8.26-2.696,12.392-4.041c1.801-0.587,2.697-1.983,2.111-3.719 c-0.209-0.621-1.174-1.209-1.902-1.4c-5.4-1.418-10.819-0.997-16.202,0.144c-5.649,1.196-11.279,2.483-16.918,3.731 C52.352,137.059,52.222,136.973,52.09,136.887z M145.664,128.009c-0.041-4.943-4.046-8.542-9.47-8.507 c-4.454,0.029-8.38,4.04-8.344,8.528c0.036,4.675,4.096,8.33,9.146,8.233C141.601,136.177,145.699,132.273,145.664,128.009z"/>
	</symbol>
</svg>